<?xml version="1.0" encoding="UTF-8" standalone="no"?>
<!DOCTYPE svg PUBLIC "-//W3C//DTD SVG 1.1//EN" "http://www.w3.org/Graphics/SVG/1.1/DTD/svg11.dtd">
<svg xmlns="http://www.w3.org/2000/svg" version="1.1" viewBox="0.00 0.00 512.00 512.00">
<path fill="#37474f" d="
  M 224.50 144.00
  L 249.24 144.00
  Q 249.74 144.00 249.86 143.52
  C 252.56 133.02 253.63 117.89 265.19 113.46
  Q 269.01 112.00 277.51 112.00
  Q 312.63 111.99 347.75 112.01
  C 369.59 112.02 369.83 125.98 374.09 143.48
  Q 374.21 143.99 374.74 143.99
  Q 413.19 144.02 451.58 143.99
  C 466.27 143.97 472.01 149.80 472.01 164.46
  Q 471.99 275.72 472.01 386.98
  C 472.01 401.85 466.81 408.01 451.60 408.00
  Q 256.00 407.99 60.40 408.01
  C 46.71 408.01 40.00 402.78 40.00 388.55
  Q 40.00 276.21 40.00 163.88
  Q 40.00 157.12 41.39 153.82
  C 46.72 141.29 60.86 144.01 71.49 144.00
  Q 72.00 144.00 72.00 143.49
  L 72.00 128.50
  A 0.50 0.50 0.0 0 1 72.50 128.00
  L 143.50 128.00
  Q 144.00 128.00 144.00 128.50
  L 144.00 143.50
  Q 144.00 144.00 144.50 144.00
  L 175.50 144.00
  Q 176.00 144.00 176.00 143.50
  L 176.00 128.50
  Q 176.00 128.00 176.50 128.00
  L 223.50 128.00
  Q 224.00 128.00 224.00 128.50
  L 224.00 143.50
  Q 224.00 144.00 224.50 144.00
  Z
  M 258.19 143.23
  Q 258.00 144.00 258.79 144.00
  L 365.49 144.00
  Q 366.01 144.00 365.88 143.50
  Q 364.28 137.07 362.66 130.65
  C 360.53 122.18 357.13 120.00 348.11 120.00
  Q 310.82 119.99 273.54 120.01
  C 266.56 120.02 263.34 123.14 261.57 129.95
  Q 259.96 136.12 258.19 143.23
  Z
  M 136.00 136.32
  A 0.32 0.32 0.0 0 0 135.68 136.00
  L 80.32 136.00
  A 0.32 0.32 0.0 0 0 80.00 136.32
  L 80.00 143.68
  A 0.32 0.32 0.0 0 0 80.32 144.00
  L 135.68 144.00
  A 0.32 0.32 0.0 0 0 136.00 143.68
  L 136.00 136.32
  Z
  M 216.00 136.32
  A 0.32 0.32 0.0 0 0 215.68 136.00
  L 184.32 136.00
  A 0.32 0.32 0.0 0 0 184.00 136.32
  L 184.00 143.68
  A 0.32 0.32 0.0 0 0 184.32 144.00
  L 215.68 144.00
  A 0.32 0.32 0.0 0 0 216.00 143.68
  L 216.00 136.32
  Z
  M 103.85 199.64
  C 107.40 168.25 148.63 168.14 152.07 199.59
  Q 152.12 200.00 152.54 200.00
  L 230.05 200.00
  Q 230.56 200.00 230.93 199.66
  C 277.70 157.31 346.36 157.78 393.14 199.68
  Q 393.50 200.00 393.98 200.00
  L 463.48 200.00
  Q 463.98 200.00 463.98 199.50
  Q 464.05 180.51 463.98 161.52
  C 463.96 154.12 460.22 152.00 453.07 152.00
  Q 255.27 152.00 57.47 152.00
  C 50.25 152.00 48.04 155.72 48.02 162.71
  Q 47.96 181.08 48.02 199.51
  Q 48.02 200.00 48.51 200.00
  L 103.44 200.00
  Q 103.81 200.00 103.85 199.64
  Z
  M 423.92 288.00
  A 111.92 111.92 0.0 0 0 312.00 176.08
  A 111.92 111.92 0.0 0 0 200.08 288.00
  A 111.92 111.92 0.0 0 0 312.00 399.92
  A 111.92 111.92 0.0 0 0 423.92 288.00
  Z
  M 143.94 199.99
  A 15.94 15.94 0.0 0 0 128.00 184.05
  A 15.94 15.94 0.0 0 0 112.06 199.99
  A 15.94 15.94 0.0 0 0 128.00 215.93
  A 15.94 15.94 0.0 0 0 143.94 199.99
  Z
  M 150.43 208.53
  C 141.42 229.16 114.35 229.07 105.51 208.37
  Q 105.35 208.00 104.95 208.00
  L 48.50 208.00
  Q 48.00 208.00 48.00 208.50
  L 48.00 375.50
  Q 48.00 376.00 48.50 376.00
  L 229.77 376.00
  A 0.31 0.31 0.0 0 0 229.98 375.47
  C 182.31 329.96 179.48 258.20 222.24 208.42
  Q 222.61 207.99 222.04 207.99
  L 151.23 208.00
  Q 150.66 208.00 150.43 208.53
  Z
  M 394.52 375.41
  A 0.35 0.34 -67.5 0 0 394.76 376.00
  L 463.50 376.00
  Q 464.00 376.00 464.00 375.50
  L 464.00 208.50
  A 0.50 0.50 0.0 0 0 463.50 208.00
  L 402.04 208.00
  A 0.25 0.25 0.0 0 0 401.85 208.41
  C 421.51 231.50 432.76 260.10 431.85 290.25
  Q 430.39 338.88 394.52 375.41
  Z
  M 267.79 399.42
  C 257.97 395.50 249.17 390.59 240.55 384.27
  Q 240.18 384.00 239.73 384.00
  L 48.53 384.00
  Q 48.13 384.00 48.11 384.40
  C 47.56 393.95 47.70 400.00 58.64 400.00
  Q 163.28 400.00 267.68 400.00
  A 0.30 0.30 0.0 0 0 267.79 399.42
  Z
  M 358.99 398.13
  Q 357.38 398.80 356.23 399.40
  A 0.32 0.31 -58.6 0 0 356.37 400.00
  Q 405.38 400.01 454.26 399.99
  C 464.91 399.99 464.02 392.60 463.99 384.46
  A 0.46 0.46 0.0 0 0 463.53 384.00
  L 384.31 384.00
  Q 383.89 384.00 383.56 384.25
  Q 372.09 392.69 358.99 398.13
  Z"
/>
<circle fill="#37474f" cx="224.00" cy="175.99" r="11.92"/>
<path fill="#37474f" d="
  M 399.94 287.99
  A 87.94 87.94 0.0 0 1 312.00 375.93
  A 87.94 87.94 0.0 0 1 224.06 287.99
  A 87.94 87.94 0.0 0 1 312.00 200.05
  A 87.94 87.94 0.0 0 1 399.94 287.99
  Z
  M 391.94 288.00
  A 79.95 79.95 0.0 0 0 311.99 208.05
  A 79.95 79.95 0.0 0 0 232.04 288.00
  A 79.95 79.95 0.0 0 0 311.99 367.95
  A 79.95 79.95 0.0 0 0 391.94 288.00
  Z"
/>
<path fill="#37474f" d="
  M 351.91 287.99
  A 39.92 39.92 0.0 0 1 311.99 327.91
  A 39.92 39.92 0.0 0 1 272.07 287.99
  A 39.92 39.92 0.0 0 1 311.99 248.07
  A 39.92 39.92 0.0 0 1 351.91 287.99
  Z
  M 303.91 272.00
  A 7.92 7.92 0.0 0 0 295.99 264.08
  A 7.92 7.92 0.0 0 0 288.07 272.00
  A 7.92 7.92 0.0 0 0 295.99 279.92
  A 7.92 7.92 0.0 0 0 303.91 272.00
  Z
  M 323.96 296.00
  A 3.96 3.96 0.0 0 0 320.00 292.04
  A 3.96 3.96 0.0 0 0 316.04 296.00
  A 3.96 3.96 0.0 0 0 320.00 299.96
  A 3.96 3.96 0.0 0 0 323.96 296.00
  Z"
/>
</svg>
