<?xml version="1.0" encoding="utf-8"?>
<!-- Generator: Adobe Illustrator 22.0.1, SVG Export Plug-In . SVG Version: 6.00 Build 0)  -->
<svg version="1.1" id="Layer_1" xmlns="http://www.w3.org/2000/svg" xmlns:xlink="http://www.w3.org/1999/xlink" x="0px" y="0px"
	 viewBox="0 0 68 68" style="enable-background:new 0 0 68 68;" xml:space="preserve">
<g>
	<path d="M60,55.9702148H49.4794922c-0.2763672,0-0.5,0.2236328-0.5,0.5s0.2236328,0.5,0.5,0.5H60
		c3.0322266,0,5.5-2.4677734,5.5-5.5V27.409668v-5.9394531c0-3.0322266-2.4677734-5.5-5.5-5.5H43.8925781l-2.1435547-3.3339844
		c-0.65625-1.0058594-1.7587891-1.6064453-2.9492188-1.6064453h-9.5996094c-1.1914063,0-2.2939453,0.6005859-2.9511719,1.609375
		l-2.1416016,3.3310547h-2.6972656c-0.2763672,0-0.5,0.2236328-0.5,0.5s0.2236328,0.5,0.5,0.5h2.9697266
		c0.1699219,0,0.328125-0.0869141,0.4208984-0.2294922l2.2880859-3.5585938
		c0.4697266-0.7216797,1.2597656-1.1523438,2.1113281-1.1523438h9.5996094c0.8515625,0,1.640625,0.4306641,2.109375,1.1503906
		l2.2900391,3.5605469c0.0927734,0.1425781,0.2509766,0.2294922,0.4208984,0.2294922h6.5097656v9.9394531H43.774292
		C41.2230225,24.2984619,37.7131348,22.7719727,34,22.7719727c-3.713623,0-7.2246094,1.5268555-9.7751465,4.1376953H3.5v-5.4394531
		c0-2.4814453,2.0185547-4.5,4.5-4.5h8.5898438c0.2763672,0,0.5-0.2236328,0.5-0.5s-0.2236328-0.5-0.5-0.5h-3.2099609v-0.46875
		c0-0.7705078-0.3007813-1.4970703-0.8466797-2.0439453c-0.5449219-0.5449219-1.2744141-0.8457031-2.0537109-0.8457031
		c-1.59375,0-2.8896484,1.2958984-2.8896484,2.8896484v0.489502C4.7490234,16.2022095,2.5,18.576416,2.5,21.4702148v5.9394531
		v24.0605469c0,3.0322266,2.4677734,5.5,5.5,5.5h33.4501953c0.2763672,0,0.5-0.2236328,0.5-0.5s-0.2236328-0.5-0.5-0.5H8
		c-2.4814453,0-4.5-2.0185547-4.5-4.5V27.909668h19.8435059c-0.1848145,0.2306519-0.3808594,0.4503784-0.5515137,0.6943359
		c-1.6308594,2.3076172-2.4921875,5.0273438-2.4921875,7.8681641c0,5.6757813,3.4042969,10.6816406,8.671875,12.7539063
		C30.5703125,49.8598633,32.2617188,50.1811523,34,50.1811523c1.7373047,0,3.4287109-0.3212891,5.0263672-0.9550781
		c5.2695313-2.0722656,8.6738281-7.078125,8.6738281-12.7539063c0-2.8398438-0.8613281-5.5605469-2.4912109-7.8662109
		c-0.1711426-0.2446899-0.3676758-0.4650269-0.5531006-0.6962891h5.9642334
		c0.003418,0.000061,0.0063477,0.0019531,0.0097656,0.0019531s0.0063477-0.0018921,0.0097656-0.0019531H64.5v23.5605469
		C64.5,53.9516602,62.4814453,55.9702148,60,55.9702148z M8.5898438,15.5014648
		c0-1.0419922,0.8476563-1.8896484,1.8896484-1.8896484c0.5117188,0,0.9902344,0.1962891,1.3466797,0.5527344
		c0.3564453,0.3574219,0.5537109,0.8330078,0.5537109,1.3369141v0.0703125H8.5898438V15.5014648z M46.7001953,36.472168
		c0,5.2617188-3.1552734,9.9023438-8.0410156,11.8242188c-2.9619141,1.1738281-6.3583984,1.1728516-9.3203125,0
		c-4.8837891-1.921875-8.0390625-6.5625-8.0390625-11.8242188c0-2.6328125,0.7978516-5.1533203,2.3105469-7.2929688
		C25.9785156,25.793457,29.8623047,23.7719727,34,23.7719727s8.0214844,2.0214844,10.3896484,5.4072266
		c0.0009766,0.0009766,0.0009766,0.0019531,0.0019531,0.0029297C45.9023438,31.3188477,46.7001953,33.8393555,46.7001953,36.472168z
		 M51.1298828,26.909668v-9.9394531H60c2.4814453,0,4.5,2.0185547,4.5,4.5v5.4394531H51.1298828z"/>
	<path d="M60.7548828,21.440918h-6.375c-0.2763672,0-0.5,0.2236328-0.5,0.5s0.2236328,0.5,0.5,0.5h6.375
		c0.2763672,0,0.5-0.2236328,0.5-0.5S61.03125,21.440918,60.7548828,21.440918z"/>
	<path d="M8.0898438,22.1928711c-0.2763672,0-0.5,0.2236328-0.5,0.5s0.2236328,0.5,0.5,0.5h2.28125
		c0.2763672,0,0.5-0.2236328,0.5-0.5s-0.2236328-0.5-0.5-0.5H8.0898438z"/>
	<path d="M14.6835938,22.1928711c-0.2763672,0-0.5,0.2236328-0.5,0.5s0.2236328,0.5,0.5,0.5h2.28125
		c0.2763672,0,0.5-0.2236328,0.5-0.5s-0.2236328-0.5-0.5-0.5H14.6835938z"/>
	<path d="M34,28.9760742c-4.1357422,0-7.5,3.3642578-7.5,7.5s3.3642578,7.5,7.5,7.5s7.5-3.3642578,7.5-7.5
		S38.1357422,28.9760742,34,28.9760742z M34,42.9760742c-3.5839844,0-6.5-2.9160156-6.5-6.5s2.9160156-6.5,6.5-6.5
		s6.5,2.9160156,6.5,6.5S37.5839844,42.9760742,34,42.9760742z"/>
</g>
</svg>
