<?xml version="1.0" encoding="UTF-8"?>
<svg id="Vrstva_2" data-name="Vrstva 2" xmlns="http://www.w3.org/2000/svg" viewBox="0 0 150 150">
  <defs>
    <style>
      .cls-1 {
        fill: #a5b2b8;
        stroke-width: 0px;
      }
    </style>
  </defs>
  <g id="Mono-Icon">
    <path class="cls-1" d="m75,0C33.58,0,0,33.58,0,75s33.58,75,75,75,75-33.58,75-75S116.42,0,75,0Zm0,145.77c-39.08,0-70.77-31.68-70.77-70.77S35.92,4.23,75,4.23s70.77,31.68,70.77,70.77-31.68,70.77-70.77,70.77Z"/>
    <path class="cls-1" d="m47.03,102.97v-14.54h-13.28v27.82h27.82v-13.28h-14.54Zm0-55.94h14.54v-13.28h-27.82v27.82h13.28v-14.54h0Zm55.94,0v14.54h13.28v-27.82h-27.82v13.28h14.54Zm0,55.94h-14.54v13.28h27.82v-27.82h-13.28v14.54Z"/>
  </g>
</svg>