<?xml version="1.0" encoding="UTF-8" standalone="no"?>
<!DOCTYPE svg PUBLIC "-//W3C//DTD SVG 1.1//EN" "http://www.w3.org/Graphics/SVG/1.1/DTD/svg11.dtd">
<svg xmlns="http://www.w3.org/2000/svg" version="1.1" viewBox="0.00 0.00 512.00 512.00">
<path fill="#000000" d="
  M 38.00 77.14
  Q 38.01 116.57 37.99 156.00
  C 37.99 164.18 26.01 164.99 26.01 155.53
  Q 26.00 113.13 26.00 70.75
  C 26.00 50.08 42.15 30.80 62.63 26.63
  Q 67.94 25.55 82.57 25.53
  Q 119.62 25.45 156.69 25.53
  C 163.91 25.54 165.24 37.52 155.71 37.51
  Q 114.85 37.46 74.00 37.41
  C 57.86 37.39 43.36 47.27 39.18 62.98
  Q 38.00 67.41 38.00 77.14
  Z"
/>
<path fill="#000000" d="
  M 438.25 37.50
  Q 397.50 37.50 356.75 37.50
  Q 353.71 37.50 352.37 36.82
  C 348.88 35.03 348.58 29.38 351.42 27.01
  Q 353.03 25.68 356.43 25.65
  Q 396.12 25.27 435.81 25.64
  Q 446.08 25.73 451.55 27.18
  C 467.61 31.44 480.61 44.44 484.63 60.70
  Q 485.96 66.09 485.98 77.55
  Q 486.03 117.39 485.99 157.25
  C 485.98 163.78 474.01 164.82 474.01 155.43
  Q 473.99 116.45 474.00 77.47
  Q 474.00 67.48 472.88 63.15
  C 468.80 47.40 454.39 37.50 438.25 37.50
  Z"
/>
<path fill="#000000" d="
  M 320.36 144.89
  Q 373.47 144.43 390.50 144.98
  C 402.41 145.36 414.84 155.47 418.43 167.20
  Q 419.98 172.29 419.99 185.08
  Q 420.01 256.28 420.00 327.49
  Q 420.00 339.41 418.47 344.35
  C 414.40 357.52 401.80 367.33 387.76 367.06
  C 382.10 366.96 375.42 367.23 371.75 367.23
  Q 248.75 367.28 125.75 367.26
  C 110.69 367.26 97.33 358.21 93.25 343.67
  Q 92.02 339.30 92.01 330.08
  Q 91.99 253.29 92.00 176.50
  C 92.01 163.39 101.39 150.67 114.05 146.56
  Q 118.63 145.06 127.76 144.95
  Q 159.67 144.56 191.64 144.82
  Q 192.32 144.83 192.39 144.15
  C 194.43 125.47 208.24 110.24 227.76 110.17
  Q 255.66 110.07 283.55 110.24
  Q 290.57 110.28 294.34 111.36
  C 308.66 115.47 317.77 129.99 319.68 144.30
  Q 319.76 144.89 320.36 144.89
  Z
  M 205.01 144.77
  L 307.04 144.75
  Q 307.64 144.75 307.56 144.15
  C 306.32 135.69 300.93 126.94 292.80 123.58
  Q 289.59 122.24 283.49 122.24
  Q 255.24 122.25 226.98 122.26
  C 214.59 122.26 206.05 132.64 204.44 144.11
  A 0.58 0.58 0.0 0 0 205.01 144.77
  Z
  M 407.99 177.38
  A 20.58 20.58 0.0 0 0 387.41 156.80
  L 124.59 156.80
  A 20.58 20.58 0.0 0 0 104.01 177.38
  L 104.01 334.66
  A 20.58 20.58 0.0 0 0 124.59 355.24
  L 387.41 355.24
  A 20.58 20.58 0.0 0 0 407.99 334.66
  L 407.99 177.38
  Z"
/>
<path fill="#000000" d="
  M 390.9632 200.1560
  A 11.06 11.06 0.0 0 1 379.8839 211.1966
  L 360.7839 211.1633
  A 11.06 11.06 0.0 0 1 349.7432 200.0840
  L 349.7768 180.8240
  A 11.06 11.06 0.0 0 1 360.8561 169.7834
  L 379.9561 169.8167
  A 11.06 11.06 0.0 0 1 390.9968 180.8960
  L 390.9632 200.1560
  Z
  M 379.0423 182.5052
  A 0.57 0.57 0.0 0 0 378.4753 181.9323
  L 362.3755 181.8480
  A 0.57 0.57 0.0 0 0 361.8025 182.4150
  L 361.7177 198.6148
  A 0.57 0.57 0.0 0 0 362.2847 199.1877
  L 378.3845 199.2720
  A 0.57 0.57 0.0 0 0 378.9575 198.7050
  L 379.0423 182.5052
  Z"
/>
<path fill="#000000" d="
  M 323.44 253.48
  A 67.45 67.45 0.0 0 1 255.99 320.93
  A 67.45 67.45 0.0 0 1 188.54 253.48
  A 67.45 67.45 0.0 0 1 255.99 186.03
  A 67.45 67.45 0.0 0 1 323.44 253.48
  Z
  M 311.42 253.49
  A 55.42 55.42 0.0 0 0 256.00 198.07
  A 55.42 55.42 0.0 0 0 200.58 253.49
  A 55.42 55.42 0.0 0 0 256.00 308.91
  A 55.42 55.42 0.0 0 0 311.42 253.49
  Z"
/>
<path fill="#000000" d="
  M 76.81 474.50
  Q 116.27 474.46 155.75 474.53
  C 165.31 474.54 164.36 486.49 155.69 486.50
  Q 118.88 486.56 82.07 486.48
  Q 67.75 486.44 62.16 485.21
  C 45.56 481.55 31.73 468.35 27.45 451.69
  Q 26.04 446.21 26.02 435.06
  Q 25.97 395.12 26.02 355.18
  C 26.02 347.74 37.97 348.00 37.98 355.31
  Q 38.04 395.91 37.97 436.52
  C 37.93 460.86 52.62 474.52 76.81 474.50
  Z"
/>
<path fill="#000000" d="
  M 417.42 474.51
  C 424.95 474.53 432.59 474.03 440.06 474.22
  C 455.99 474.64 468.73 463.06 472.79 448.75
  Q 474.03 444.39 474.02 437.48
  Q 473.97 396.74 474.03 356.00
  C 474.04 347.73 485.99 347.00 486.00 356.56
  Q 486.00 393.78 486.00 431.00
  Q 486.00 445.33 484.70 450.91
  C 480.90 467.15 467.82 480.48 451.63 484.81
  Q 446.08 486.30 434.73 486.37
  Q 397.14 486.63 359.55 486.48
  Q 354.33 486.46 352.57 485.64
  C 347.63 483.33 348.61 474.54 355.47 474.52
  Q 386.45 474.43 417.42 474.51
  Z"
/>
</svg>
